<svg width="56" height="56" viewBox="0 0 56 56" fill="none" xmlns="http://www.w3.org/2000/svg">
<g clip-path="url(#clip0_5197_123)">
<circle cx="28" cy="28" r="28" fill="#E0F2FE"/>
<g filter="url(#filter0_d_5197_123)">
<circle cx="28.0001" cy="28" r="20.3636" fill="white"/>
</g>
<path d="M35 24.1818V21.6364C35 21.4676 34.933 21.3057 34.8136 21.1864C34.6943 21.067 34.5324 21 34.3636 21H21.6364C21.4676 21 21.3057 21.067 21.1864 21.1864C21.067 21.3057 21 21.4676 21 21.6364V24.1818H35Z" fill="#0876DD"/>
<path d="M21 25.4545V34.3636C21 34.5324 21.067 34.6943 21.1864 34.8136C21.3057 34.9329 21.4676 35 21.6364 35H24.8182V25.4545H21Z" fill="#0876DD"/>
<path d="M26.0908 35H34.3635C34.5323 35 34.6942 34.9329 34.8135 34.8136C34.9329 34.6943 34.9999 34.5324 34.9999 34.3636V25.4545H26.0908V35Z" fill="#0876DD"/>
</g>
<defs>
<filter id="filter0_d_5197_123" x="-12.3635" y="-2.36365" width="80.7273" height="80.7273" filterUnits="userSpaceOnUse" color-interpolation-filters="sRGB">
<feFlood flood-opacity="0" result="BackgroundImageFix"/>
<feColorMatrix in="SourceAlpha" type="matrix" values="0 0 0 0 0 0 0 0 0 0 0 0 0 0 0 0 0 0 127 0" result="hardAlpha"/>
<feOffset dy="10"/>
<feGaussianBlur stdDeviation="10"/>
<feColorMatrix type="matrix" values="0 0 0 0 0.109804 0 0 0 0 0.172549 0 0 0 0 0.25098 0 0 0 0.08 0"/>
<feBlend mode="normal" in2="BackgroundImageFix" result="effect1_dropShadow_5197_123"/>
<feBlend mode="normal" in="SourceGraphic" in2="effect1_dropShadow_5197_123" result="shape"/>
</filter>
<clipPath id="clip0_5197_123">
<rect width="56" height="56" fill="white"/>
</clipPath>
</defs>
</svg>
