<svg width="56" height="56" viewBox="0 0 56 56" fill="none" xmlns="http://www.w3.org/2000/svg">
<g clip-path="url(#clip0_5197_44)">
<circle cx="28" cy="28" r="28" fill="#CFFAFE"/>
<g filter="url(#filter0_d_5197_44)">
<circle cx="28.0001" cy="28" r="20.3636" fill="white"/>
</g>
<g clip-path="url(#clip1_5197_44)">
<path d="M33.7272 35.6364H27.9999C27.8311 35.6364 27.6693 35.5694 27.5499 35.45C27.4306 35.3307 27.3635 35.1688 27.3635 35V33.7273C27.3635 33.5585 27.4306 33.3967 27.5499 33.2773C27.6693 33.158 27.8311 33.0909 27.9999 33.0909H33.7272C33.8959 33.0909 34.0578 33.158 34.1771 33.2773C34.2965 33.3967 34.3635 33.5585 34.3635 33.7273V35C34.3635 35.1688 34.2965 35.3307 34.1771 35.45C34.0578 35.5694 33.8959 35.6364 33.7272 35.6364Z" fill="#29D2D3"/>
<path d="M33.7271 20.3636H22.2726C22.1038 20.3636 21.942 20.4307 21.8226 20.55C21.7033 20.6694 21.6362 20.8312 21.6362 21V22.2727C21.6362 22.4415 21.7033 22.6034 21.8226 22.7227C21.942 22.8421 22.1038 22.9091 22.2726 22.9091H33.7271C33.8959 22.9091 34.0578 22.8421 34.1771 22.7227C34.2965 22.6034 34.3635 22.4415 34.3635 22.2727V21C34.3635 20.8312 34.2965 20.6694 34.1771 20.55C34.0578 20.4307 33.8959 20.3636 33.7271 20.3636Z" fill="#29D2D3"/>
<path d="M33.7271 24.1818H22.2726C22.1038 24.1818 21.942 24.2489 21.8226 24.3682C21.7033 24.4876 21.6362 24.6494 21.6362 24.8182V31.1818C21.6362 31.3506 21.7033 31.5125 21.8226 31.6318C21.942 31.7511 22.1038 31.8182 22.2726 31.8182H33.7271C33.8959 31.8182 34.0578 31.7511 34.1771 31.6318C34.2965 31.5125 34.3635 31.3506 34.3635 31.1818V24.8182C34.3635 24.6494 34.2965 24.4876 34.1771 24.3682C34.0578 24.2489 33.8959 24.1818 33.7271 24.1818Z" fill="#29D2D3"/>
</g>
</g>
<defs>
<filter id="filter0_d_5197_44" x="-12.3635" y="-2.36365" width="80.7273" height="80.7273" filterUnits="userSpaceOnUse" color-interpolation-filters="sRGB">
<feFlood flood-opacity="0" result="BackgroundImageFix"/>
<feColorMatrix in="SourceAlpha" type="matrix" values="0 0 0 0 0 0 0 0 0 0 0 0 0 0 0 0 0 0 127 0" result="hardAlpha"/>
<feOffset dy="10"/>
<feGaussianBlur stdDeviation="10"/>
<feColorMatrix type="matrix" values="0 0 0 0 0.109804 0 0 0 0 0.172549 0 0 0 0 0.25098 0 0 0 0.08 0"/>
<feBlend mode="normal" in2="BackgroundImageFix" result="effect1_dropShadow_5197_44"/>
<feBlend mode="normal" in="SourceGraphic" in2="effect1_dropShadow_5197_44" result="shape"/>
</filter>
<clipPath id="clip0_5197_44">
<rect width="56" height="56" fill="white"/>
</clipPath>
<clipPath id="clip1_5197_44">
<rect width="15.2727" height="15.2727" fill="white" transform="translate(20.3635 20.3636)"/>
</clipPath>
</defs>
</svg>
