<svg width="28" height="28" viewBox="0 0 28 28" fill="none" xmlns="http://www.w3.org/2000/svg">
<path d="M20.9866 26.4444H6.18018C5.34447 26.4444 4.66699 25.7706 4.66699 24.9393V3.06069C4.66699 2.22943 5.34447 1.55556 6.18018 1.55556H14.9082C20.7189 1.55556 23.3337 5.6736 23.3337 9.79165C23.3337 13.2956 21.4815 16.3661 17.4504 17.3775L22.2209 24.0686C22.9315 25.0653 22.215 26.4444 20.9866 26.4444Z" fill="url(#paint0_linear_1972_3270)"/>
<path opacity="0.64" d="M6.22255 1.55556H9.33366V26.4444H6.22255C5.36344 26.4444 4.66699 25.7706 4.66699 24.9393V3.06069C4.66699 2.22943 5.36344 1.55556 6.22255 1.55556Z" fill="url(#paint1_linear_1972_3270)"/>
<defs>
<linearGradient id="paint0_linear_1972_3270" x1="14.2909" y1="1.55556" x2="14.2909" y2="26.4444" gradientUnits="userSpaceOnUse">
<stop stop-color="#2ED4FF"/>
<stop offset="1" stop-color="#0088FF"/>
</linearGradient>
<linearGradient id="paint1_linear_1972_3270" x1="8.90699" y1="1.55556" x2="8.90699" y2="26.4444" gradientUnits="userSpaceOnUse">
<stop stop-color="#3525D3"/>
<stop offset="1" stop-color="#3525D3" stop-opacity="0.24"/>
</linearGradient>
</defs>
</svg>
