<svg width="56" height="56" viewBox="0 0 56 56" fill="none" xmlns="http://www.w3.org/2000/svg">
<g clip-path="url(#clip0_5197_64)">
<circle cx="28" cy="28" r="28" fill="#CFFAFE"/>
<g filter="url(#filter0_d_5197_64)">
<circle cx="28.0001" cy="28" r="20.3636" fill="white"/>
</g>
<g clip-path="url(#clip1_5197_64)">
<path d="M31.8181 26.7273H35.6363L33.7272 24.1818L31.8181 26.7273ZM31.8181 29.2727H35.6363L33.7272 31.8182L31.8181 29.2727Z" fill="#29D2D3"/>
<path d="M20.9999 20.3636H24.8181V35.6364H20.9999C20.8311 35.6364 20.6693 35.5693 20.5499 35.45C20.4306 35.3306 20.3635 35.1688 20.3635 35V21C20.3635 20.8312 20.4306 20.6694 20.5499 20.55C20.6693 20.4307 20.8311 20.3636 20.9999 20.3636Z" fill="#29D2D3"/>
<path d="M26.0908 20.3636H29.909C30.0778 20.3636 30.2396 20.4307 30.359 20.55C30.4783 20.6694 30.5454 20.8312 30.5454 21V35C30.5454 35.1688 30.4783 35.3306 30.359 35.45C30.2396 35.5693 30.0778 35.6364 29.909 35.6364H26.0908V20.3636Z" fill="#29D2D3"/>
</g>
</g>
<defs>
<filter id="filter0_d_5197_64" x="-12.3635" y="-2.36363" width="80.7273" height="80.7273" filterUnits="userSpaceOnUse" color-interpolation-filters="sRGB">
<feFlood flood-opacity="0" result="BackgroundImageFix"/>
<feColorMatrix in="SourceAlpha" type="matrix" values="0 0 0 0 0 0 0 0 0 0 0 0 0 0 0 0 0 0 127 0" result="hardAlpha"/>
<feOffset dy="10"/>
<feGaussianBlur stdDeviation="10"/>
<feColorMatrix type="matrix" values="0 0 0 0 0.109804 0 0 0 0 0.172549 0 0 0 0 0.25098 0 0 0 0.08 0"/>
<feBlend mode="normal" in2="BackgroundImageFix" result="effect1_dropShadow_5197_64"/>
<feBlend mode="normal" in="SourceGraphic" in2="effect1_dropShadow_5197_64" result="shape"/>
</filter>
<clipPath id="clip0_5197_64">
<rect width="56" height="56" fill="white"/>
</clipPath>
<clipPath id="clip1_5197_64">
<rect width="15.2727" height="15.2727" fill="white" transform="translate(20.3635 20.3636)"/>
</clipPath>
</defs>
</svg>
