<svg width="35" height="40" viewBox="0 0 35 40" fill="none" xmlns="http://www.w3.org/2000/svg">
<g clip-path="url(#clip0_5197_149)">
<path d="M24.8154 5.19557V34.3622C24.8154 37.6258 27.067 39.4443 29.4556 39.4443C31.6652 39.4443 34.0957 37.8976 34.0957 34.3622V5.41653C34.0957 2.42474 31.8861 0.55542 29.4556 0.55542C27.025 0.55542 24.8154 2.61697 24.8154 5.19557Z" fill="#F9AB00"/>
<path d="M12.6628 19.9998V34.3621C12.6628 37.6257 14.9144 39.4442 17.303 39.4442C19.5126 39.4442 21.9431 37.8975 21.9431 34.3621V20.2207C21.9431 17.2289 19.7335 15.3596 17.303 15.3596C14.8724 15.3596 12.6628 17.4212 12.6628 19.9998Z" fill="#E37400"/>
<path d="M5.15016 39.4444C7.71285 39.4444 9.79031 37.3669 9.79031 34.8042C9.79031 32.2415 7.71285 30.1641 5.15016 30.1641C2.58748 30.1641 0.51001 32.2415 0.51001 34.8042C0.51001 37.3669 2.58748 39.4444 5.15016 39.4444Z" fill="#E37400"/>
</g>
<defs>
<clipPath id="clip0_5197_149">
<rect width="33.9394" height="40" fill="white" transform="translate(0.333252)"/>
</clipPath>
</defs>
</svg>
