<svg width="64" height="64" viewBox="0 0 64 64" fill="none" xmlns="http://www.w3.org/2000/svg">
<path d="M43.0448 24.6611V19.5702C43.7186 19.2555 44.289 18.7558 44.6897 18.1293C45.0905 17.5028 45.305 16.7754 45.3083 16.0317V15.9127C45.3055 14.8734 44.8914 13.8774 44.1566 13.1425C43.4219 12.4076 42.4261 11.9935 41.3869 11.9907H41.2679C40.2288 11.9935 39.233 12.4076 38.4982 13.1425C37.7634 13.8774 37.3494 14.8734 37.3466 15.9127V16.0317C37.3499 16.7754 37.5644 17.5028 37.9651 18.1293C38.3659 18.7558 38.9363 19.2555 39.61 19.5702V24.6717C37.673 24.9679 35.8487 25.7708 34.3216 26.999L20.3233 16.0952C20.5898 15.0974 20.5023 14.038 20.0758 13.0975C19.6493 12.1569 18.91 11.3933 17.9839 10.9364C17.0578 10.4796 16.0021 10.3579 14.9964 10.5919C13.9906 10.826 13.0971 11.4014 12.4677 12.2202C11.8384 13.039 11.5122 14.0506 11.5447 15.0829C11.5771 16.1152 11.9663 17.1043 12.6458 17.8819C13.3253 18.6596 14.2533 19.1777 15.2717 19.3481C16.2902 19.5184 17.3362 19.3306 18.2317 18.8165L31.9948 29.5325C30.7551 31.403 30.1084 33.604 30.139 35.848C30.1697 38.0919 30.8763 40.2744 32.1666 42.1104L27.9782 46.2995C27.642 46.1923 27.2919 46.1353 26.9391 46.1302C26.22 46.1302 25.517 46.3435 24.9191 46.743C24.3212 47.1426 23.8552 47.7105 23.5801 48.375C23.3049 49.0394 23.2329 49.7706 23.3732 50.476C23.5135 51.1814 23.8597 51.8293 24.3682 52.3379C24.8767 52.8464 25.5245 53.1927 26.2298 53.3331C26.935 53.4734 27.6661 53.4013 28.3304 53.1261C28.9948 52.8509 29.5626 52.3848 29.9621 51.7868C30.3616 51.1888 30.5748 50.4858 30.5748 49.7666C30.5699 49.4137 30.5128 49.0634 30.4056 48.7272L34.549 44.5831C35.9016 45.6164 37.4723 46.3269 39.1413 46.6605C40.8103 46.994 42.5334 46.9418 44.1791 46.5077C45.8248 46.0737 47.3496 45.2692 48.6371 44.1559C49.9246 43.0426 50.9407 41.6498 51.6079 40.0838C52.2751 38.5177 52.5757 36.82 52.4869 35.12C52.398 33.4201 51.9219 31.763 51.0951 30.2751C50.2682 28.7872 49.1124 27.508 47.7158 26.535C46.3193 25.5621 44.7189 24.9211 43.0369 24.6611H43.0448ZM41.3208 41.4333C40.1875 41.4307 39.0803 41.0922 38.1393 40.4605C37.1983 39.8287 36.4656 38.9322 36.0338 37.8842C35.602 36.8361 35.4905 35.6836 35.7134 34.5722C35.9363 33.4608 36.4836 32.4404 37.2861 31.64C38.0886 30.8395 39.1103 30.295 40.2221 30.0751C41.334 29.8553 42.486 29.97 43.5327 30.4047C44.5794 30.8395 45.4737 31.5748 46.1027 32.5177C46.7317 33.4606 47.0672 34.5689 47.0667 35.7024C47.0667 37.2231 46.4627 38.6814 45.3876 39.7567C44.3125 40.8319 42.8544 41.436 41.334 41.436" fill="#FF7A59"/>
</svg>
