<svg width="40" height="40" viewBox="0 0 40 40" fill="none" xmlns="http://www.w3.org/2000/svg">
<path d="M11.9187 26.442C11.9408 26.4688 11.9543 26.5016 11.9573 26.5361C11.9604 26.5707 11.953 26.6054 11.936 26.6356C11.8533 26.7698 11.7348 26.8783 11.5938 26.9487C11.4528 27.0191 11.2949 27.0488 11.1379 27.0343C10.8582 27.0042 10.6004 26.869 10.4165 26.656C10.2326 26.4431 10.1365 26.1683 10.1474 25.8872C10.1427 25.5041 10.2126 25.1237 10.3534 24.7673C10.4422 24.544 10.4515 24.297 10.3796 24.0677C10.3078 23.8383 10.1592 23.6407 9.9588 23.5081C9.84022 23.4296 9.70712 23.3757 9.56736 23.3495C9.4276 23.3233 9.28401 23.3254 9.14508 23.3557C9.00896 23.3843 8.87994 23.4399 8.76561 23.5191C8.65128 23.5984 8.55395 23.6997 8.47934 23.8171C8.37381 23.9977 8.29175 24.1911 8.23516 24.3926C8.22424 24.428 8.21543 24.4559 8.20876 24.4739C8.11604 24.724 7.96823 24.7969 7.86808 24.7835C7.82073 24.7769 7.75563 24.7453 7.71389 24.6308C7.66152 24.2999 7.68528 23.9614 7.7834 23.6411C7.88151 23.3207 8.05138 23.027 8.28009 22.7822C8.47216 22.5759 8.71058 22.4183 8.97562 22.3225C9.24067 22.2267 9.52472 22.1953 9.80429 22.231C10.1005 22.2717 10.3819 22.3852 10.6235 22.5614C10.865 22.7376 11.0591 22.9709 11.1883 23.2405C11.3192 23.5718 11.372 23.9288 11.3426 24.2839C11.3133 24.6389 11.2026 24.9824 11.0191 25.2878C10.9959 25.3397 10.9746 25.3873 10.9567 25.4304C10.8907 25.5496 10.8545 25.6831 10.8511 25.8193C10.8477 25.9556 10.8772 26.0906 10.9371 26.2131C10.9878 26.2861 11.0558 26.3453 11.135 26.3856C11.2142 26.4259 11.3022 26.4459 11.391 26.4438C11.4748 26.4426 11.558 26.4309 11.6388 26.4088C11.744 26.3842 11.8527 26.3589 11.9187 26.442L11.9187 26.442ZM37.8424 27.0892C37.7836 28.2964 37.5286 29.4859 37.0873 30.611C34.8858 35.9025 29.632 38.8483 23.3732 38.6618C17.5386 38.488 12.5623 35.3997 10.3843 30.3655C9.00937 30.327 7.69404 29.7958 6.67803 28.8686C5.62848 27.9739 4.95415 26.7169 4.78914 25.3476C4.68265 24.4056 4.79915 23.4517 5.12925 22.563L3.90611 21.5237C-1.69055 16.7837 15.8143 -2.73262 21.4131 2.16564C21.4413 2.1903 23.3176 4.03698 23.3223 4.04153C23.3298 4.03773 24.3576 3.60057 24.3628 3.59844C29.2734 1.55876 33.2581 2.54359 33.2631 5.79795C33.2657 7.49042 32.1905 9.46312 30.4683 11.2538C31.1566 11.9543 31.6439 12.827 31.8793 13.7805C32.0692 14.4457 32.1718 15.1328 32.1846 15.8245C32.2145 16.5142 32.2476 18.1209 32.2509 18.1495C32.2946 18.1628 32.7918 18.2996 32.9425 18.3421C33.9444 18.5618 34.8767 19.025 35.657 19.6907C36.069 20.0935 36.3387 20.6193 36.4257 21.1888C36.5318 21.9278 36.3474 22.6791 35.9112 23.285C36.0247 23.5438 36.1232 23.809 36.2062 24.0792C36.3511 24.5453 36.4566 24.9321 36.4728 24.9895C37.0056 24.9894 37.8424 25.6047 37.8424 27.0892L37.8424 27.0892ZM13.1093 24.1856C12.7287 21.7147 11.0623 20.8439 9.93162 20.7818C9.6478 20.7667 9.3632 20.787 9.08438 20.8422C7.06622 21.2506 5.9264 22.9726 6.15069 25.2101C6.31403 26.2138 6.81104 27.1331 7.56139 27.8194C8.31174 28.5057 9.27159 28.9189 10.2858 28.9923C10.4799 28.9975 10.6741 28.9839 10.8655 28.9516C12.911 28.6016 13.4465 26.3738 13.1093 24.1856ZM16.5588 8.50035C18.2684 7.0949 20.092 5.83426 22.0108 4.73152C22.0108 4.73152 20.4873 2.95958 20.0272 2.82899C17.1973 2.06168 11.084 6.29049 7.18095 11.8774C5.60164 14.1379 3.34083 18.1412 4.42177 20.2C4.80577 20.6621 5.23895 21.081 5.71364 21.4494C6.43632 20.4307 7.52676 19.733 8.75448 19.5036C10.2905 15.1858 12.9916 11.3775 16.5588 8.50035ZM22.7094 28.0537C22.7844 28.3821 22.9467 28.6841 23.1792 28.9278C23.4116 29.1716 23.7056 29.348 24.0301 29.4385C24.3676 29.5643 24.7159 29.6592 25.0706 29.7219C29.547 30.4943 33.7319 27.927 34.6741 27.2804C34.7449 27.2319 34.7916 27.2792 34.7348 27.3649C34.7065 27.4105 34.6757 27.4546 34.6426 27.4969C33.4894 28.9889 30.3892 30.7167 26.3558 30.7161C24.5967 30.7157 22.8385 30.0941 22.1929 29.139C21.1913 27.6568 22.1433 25.4936 23.8121 25.719C23.8141 25.7193 24.3832 25.784 24.5431 25.8018C27.1373 26.0513 29.7522 25.6316 32.138 24.5827C34.4149 23.5226 35.2751 22.3558 35.146 21.4114C35.1029 21.118 34.965 20.8469 34.7534 20.6392C34.1308 20.1267 33.3915 19.7754 32.6008 19.6164C32.2392 19.5146 31.9938 19.4496 31.7295 19.3623C31.2595 19.207 31.0271 19.082 30.9745 18.1955C30.9516 17.8078 30.8842 16.4572 30.8598 15.8991C30.8168 14.9211 30.6997 13.5843 29.8726 13.0324C29.6621 12.8938 29.4176 12.8155 29.1657 12.8057C29.0245 12.7972 28.8828 12.8111 28.746 12.847C28.3271 12.9439 27.9453 13.1604 27.647 13.4702C27.2605 13.8195 26.806 14.0852 26.312 14.2506C25.8179 14.416 25.2951 14.4776 24.7761 14.4314C24.1975 14.4072 23.5843 14.3168 22.8813 14.2749C22.7446 14.2669 22.6073 14.2583 22.4702 14.2513C21.5652 14.2751 20.6987 14.6231 20.0286 15.2319C19.3586 15.8408 18.9294 16.67 18.8193 17.5687C18.4169 20.3461 20.4222 21.7814 21.0011 22.6236C21.0906 22.7308 21.146 22.8623 21.1604 23.0012C21.1452 23.1553 21.0714 23.2976 20.9544 23.399V23.3999C20.1536 24.292 19.5908 25.3717 19.318 26.539C19.0453 27.7064 19.0714 28.9237 19.3939 30.0783C19.4704 30.3555 19.5685 30.6264 19.6872 30.8884C21.1504 34.3181 25.6895 35.9151 30.1241 34.4624C30.7047 34.2722 31.2683 34.0335 31.8088 33.7488C32.7799 33.2674 33.6544 32.6119 34.3888 31.8147C35.5309 30.6669 36.2824 29.1885 36.5367 27.5894C36.6702 26.7054 36.4748 26.3635 36.2083 26.1989C36.0199 26.094 35.8022 26.054 35.5888 26.0854C35.4759 25.3912 35.2778 24.7135 34.999 24.0678C33.7325 25.0235 32.3008 25.7377 30.7755 26.1747C28.9404 26.6932 27.0314 26.9003 25.1278 26.7873C23.9031 26.688 23.0929 26.3294 22.7882 27.3228C24.6406 27.9423 26.6075 28.1429 28.5469 27.9103C28.5605 27.9089 28.5743 27.9103 28.5875 27.9142C28.6006 27.9181 28.6128 27.9246 28.6235 27.9333C28.6341 27.942 28.6429 27.9527 28.6493 27.9648C28.6558 27.9769 28.6598 27.9902 28.6612 28.0038C28.6632 28.0267 28.6581 28.0497 28.6465 28.0697C28.6349 28.0896 28.6175 28.1054 28.5965 28.1149C28.5965 28.1149 26.3219 29.1743 22.7094 28.0537ZM16.0476 11.9474C17.5521 10.8912 19.2485 10.1391 21.0415 9.73344C23.0641 9.26472 25.1665 9.25905 27.1916 9.71685C27.2624 9.73313 27.3077 9.60999 27.2442 9.57439C26.1934 9.02722 25.0333 8.72223 23.8492 8.68181C23.8378 8.6816 23.8267 8.67825 23.8171 8.67213C23.8074 8.666 23.7997 8.65734 23.7947 8.6471C23.7896 8.63685 23.7875 8.62542 23.7886 8.61406C23.7897 8.6027 23.7938 8.59185 23.8007 8.58271C23.9846 8.34128 24.1994 8.12507 24.4397 7.93961C24.4505 7.93121 24.4583 7.91959 24.462 7.90645C24.4657 7.89331 24.4651 7.87932 24.4603 7.86654C24.4555 7.85375 24.4467 7.84282 24.4353 7.83535C24.4239 7.82788 24.4104 7.82425 24.3967 7.82499C22.9467 7.96835 21.5532 8.46184 20.3361 9.26299C20.3257 9.27004 20.3134 9.27379 20.3009 9.27376C20.2883 9.27373 20.2761 9.26992 20.2657 9.26282C20.2553 9.25573 20.2474 9.24568 20.2428 9.23398C20.2382 9.22228 20.2373 9.20948 20.2401 9.19724C20.3381 8.82984 20.4824 8.4764 20.6697 8.14544C20.6759 8.13412 20.6783 8.12111 20.6766 8.10832C20.6748 8.09552 20.669 8.08362 20.66 8.07437C20.651 8.06512 20.6393 8.059 20.6265 8.05691C20.6138 8.05483 20.6007 8.05689 20.5892 8.06279C18.8291 9.03433 17.2614 10.3194 15.9633 11.8548C15.9532 11.8664 15.9476 11.8814 15.9478 11.8968C15.948 11.9123 15.9538 11.9272 15.9642 11.9386C15.9746 11.95 15.9888 11.9573 16.0042 11.9589C16.0196 11.9605 16.035 11.9564 16.0476 11.9474ZM27.8357 21.3754C27.9582 21.453 28.105 21.4827 28.248 21.4589C28.3911 21.4352 28.5204 21.3595 28.6112 21.2465C28.7241 21.028 28.5602 20.7316 28.2449 20.5843C28.1223 20.5068 27.9755 20.4771 27.8324 20.5009C27.6894 20.5247 27.5601 20.6004 27.4693 20.7135C27.3563 20.9319 27.5204 21.2283 27.8357 21.3754ZM28.8028 17.8315C28.8784 18.225 29.0416 18.5964 29.2803 18.9183C29.5268 18.8879 29.7762 18.8879 30.0228 18.9183C30.167 18.4864 30.1796 18.0214 30.0591 17.5823C29.8809 16.7721 29.6397 16.2818 29.1413 16.358C28.6431 16.4344 28.6247 17.0214 28.8028 17.8315ZM29.863 19.6926C29.7373 19.6565 29.6035 19.6607 29.4803 19.7047C29.3571 19.7486 29.2508 19.83 29.1763 19.9374C29.1018 20.0448 29.0628 20.1729 29.0648 20.3037C29.0669 20.4344 29.1098 20.5612 29.1876 20.6663C29.2654 20.7714 29.3742 20.8495 29.4987 20.8895C29.6231 20.9296 29.757 20.9297 29.8815 20.8897C30.006 20.8498 30.1149 20.7718 30.1928 20.6669C30.2707 20.5619 30.3138 20.4351 30.316 20.3043C30.334 20.1636 30.297 20.0214 30.2126 19.9073C30.1281 19.7933 30.0028 19.7164 29.863 19.6926Z" fill="black"/>
<path d="M21.589 19.6203C21.5095 19.6091 21.4756 19.5751 21.4656 19.53C21.4347 19.3902 21.6497 19.1602 21.8763 18.9942C22.207 18.7524 22.5943 18.5998 23.001 18.551C23.4077 18.5021 23.8202 18.5588 24.1987 18.7154C24.5524 18.8613 24.8565 19.1061 25.0746 19.4204C25.1556 19.5525 25.1713 19.655 25.1189 19.7087C25.0373 19.7948 24.8293 19.6962 24.4905 19.5476C24.0835 19.3479 23.6338 19.2511 23.1808 19.2655C22.6439 19.3538 22.1125 19.4723 21.589 19.6203ZM24.9654 20.3154C24.8191 20.1615 24.6368 20.0463 24.435 19.9802C24.2332 19.914 24.0181 19.899 23.8091 19.9363C23.5008 19.9691 23.2087 20.0909 22.9684 20.2867C22.8564 20.3671 22.7794 20.4873 22.7532 20.6227C22.7526 20.6377 22.7553 20.6527 22.7612 20.6666C22.767 20.6805 22.7758 20.693 22.787 20.7031C22.8068 20.7211 22.8328 20.731 22.8596 20.7307C22.9705 20.7144 23.079 20.6843 23.1824 20.6412C23.6353 20.4705 24.1246 20.4197 24.603 20.4936C24.8246 20.5186 24.9293 20.5324 24.978 20.4564C24.9905 20.4344 24.9959 20.4091 24.9937 20.3839C24.9915 20.3587 24.9816 20.3348 24.9654 20.3154Z" fill="black"/>
</svg>
