<svg width="21" height="20" viewBox="0 0 21 20" fill="none" xmlns="http://www.w3.org/2000/svg">
<g id="play-icon" clip-path="url(#clip0_2622_852)">
<path id="Vector" d="M10.5 18.3333C15.1025 18.3333 18.8333 14.6025 18.8333 10C18.8333 5.3975 15.1025 1.66667 10.5 1.66667C5.8975 1.66667 2.16667 5.3975 2.16667 10C2.16667 14.6025 5.8975 18.3333 10.5 18.3333ZM10.5 20C4.9775 20 0.5 15.5225 0.5 10C0.5 4.4775 4.9775 0 10.5 0C16.0225 0 20.5 4.4775 20.5 10C20.5 15.5225 16.0225 20 10.5 20Z" fill="#6B7280"/>
<path id="Vector_2" d="M8.83325 14.1667L13.8333 10L8.83325 5.83334V14.1667Z" fill="#6B7280"/>
</g>
<defs>
<clipPath id="clip0_2622_852">
<rect width="20" height="20" fill="white" transform="translate(0.5)"/>
</clipPath>
</defs>
</svg>
