<svg xmlns="http://www.w3.org/2000/svg" width="44" height="44" viewBox="0 0 44 44" fill="none">
  <g clip-path="url(#clip0_5197_387)">
    <path d="M22 44C34.1503 44 44 34.1503 44 22C44 9.84974 34.1503 0 22 0C9.84974 0 0 9.84974 0 22C0 34.1503 9.84974 44 22 44Z" fill="#2CA01C"/>
    <path d="M6.11111 22C6.11111 24.2691 7.0125 26.4452 8.61698 28.0497C10.2215 29.6542 12.3976 30.5555 14.6667 30.5555H15.8889V27.3778H14.6667C13.2404 27.3778 11.8725 26.8112 10.864 25.8026C9.85548 24.7941 9.28889 23.4263 9.28889 22C9.28889 20.5737 9.85548 19.2058 10.864 18.1973C11.8725 17.1888 13.2404 16.6222 14.6667 16.6222H17.6V33.2444C17.6 33.6617 17.6822 34.075 17.8419 34.4605C18.0016 34.8461 18.2357 35.1964 18.5308 35.4915C18.8258 35.7865 19.1762 36.0206 19.5617 36.1803C19.9472 36.34 20.3605 36.4222 20.7778 36.4222V13.4444H14.6667C12.3976 13.4444 10.2215 14.3458 8.61698 15.9503C7.0125 17.5548 6.11111 19.7309 6.11111 22ZM29.3333 13.4444H28.1111V16.6222H29.3333C30.7596 16.6222 32.1275 17.1888 33.136 18.1973C34.1445 19.2058 34.7111 20.5737 34.7111 22C34.7111 23.4263 34.1445 24.7941 33.136 25.8026C32.1275 26.8112 30.7596 27.3778 29.3333 27.3778H26.4V10.7555C26.4 9.91274 26.0652 9.10446 25.4693 8.50851C24.8733 7.91256 24.065 7.57776 23.2222 7.57776V30.5555H29.3333C30.4569 30.5555 31.5694 30.3342 32.6074 29.9043C33.6454 29.4743 34.5886 28.8441 35.383 28.0497C36.1775 27.2552 36.8077 26.3121 37.2376 25.274C37.6676 24.236 37.8889 23.1235 37.8889 22C37.8889 20.8764 37.6676 19.7639 37.2376 18.7259C36.8077 17.6879 36.1775 16.7447 35.383 15.9503C34.5886 15.1558 33.6454 14.5256 32.6074 14.0957C31.5694 13.6657 30.4569 13.4444 29.3333 13.4444Z" fill="white"/>
  </g>
  <defs>
    <clipPath id="clip0_5197_387">
      <rect width="44" height="44" fill="white"/>
    </clipPath>
  </defs>
</svg>