<svg width="56" height="56" viewBox="0 0 56 56" fill="none" xmlns="http://www.w3.org/2000/svg">
<g clip-path="url(#clip0_5197_299)">
<circle cx="28" cy="28" r="28" fill="#E0F2FE"/>
<g filter="url(#filter0_d_5197_299)">
<circle cx="28.0001" cy="28" r="20.3636" fill="white"/>
</g>
<g clip-path="url(#clip1_5197_299)">
<path d="M27.6221 20.4476L20.7367 23.6645C20.6901 23.6858 20.6507 23.7201 20.623 23.7632C20.5954 23.8064 20.5807 23.8565 20.5808 23.9078C20.5809 23.959 20.5957 24.0091 20.6234 24.0522C20.6512 24.0952 20.6907 24.1294 20.7373 24.1506L27.6769 27.3439C27.8818 27.4381 28.1185 27.4381 28.3234 27.3439L35.2629 24.1506C35.3096 24.1295 35.3492 24.0953 35.377 24.0523C35.4048 24.0093 35.4196 23.9592 35.4198 23.908C35.4199 23.8567 35.4053 23.8066 35.3777 23.7634C35.3502 23.7202 35.3108 23.6859 35.2642 23.6645L28.3781 20.4476C28.2598 20.3923 28.1308 20.3637 28.0001 20.3637C27.8695 20.3637 27.7405 20.3923 27.6221 20.4476Z" fill="#0876DD"/>
<path d="M35.2641 27.7938L33.8418 27.1294C33.7399 27.0819 33.6289 27.057 33.5165 27.0567C33.4041 27.0564 33.2929 27.0805 33.1908 27.1275L28.3232 29.3675C28.2218 29.4142 28.1116 29.4383 28 29.4383C27.8884 29.4383 27.7781 29.4142 27.6767 29.3675L22.8085 27.1275C22.7065 27.0806 22.5954 27.0565 22.4831 27.0569C22.3708 27.0572 22.2599 27.082 22.1581 27.1294L20.7359 27.7938C20.6893 27.8152 20.6499 27.8496 20.6224 27.8927C20.5948 27.9359 20.5802 27.9861 20.5803 28.0373C20.5805 28.0885 20.5953 28.1386 20.6231 28.1817C20.6509 28.2247 20.6905 28.2588 20.7371 28.28L27.6767 31.4726C27.778 31.5195 27.8883 31.5438 28 31.5438C28.1116 31.5438 28.2219 31.5195 28.3232 31.4726L35.2628 28.28C35.3094 28.2588 35.349 28.2247 35.3768 28.1817C35.4046 28.1386 35.4195 28.0885 35.4196 28.0373C35.4197 27.9861 35.4051 27.9359 35.3776 27.8927C35.35 27.8496 35.3106 27.8152 35.2641 27.7938Z" fill="#0876DD"/>
<path d="M35.2641 31.8869L33.8418 31.2226C33.74 31.175 33.629 31.1501 33.5165 31.1498C33.4041 31.1495 33.293 31.1737 33.1908 31.2207L28.3233 33.46C28.2219 33.5066 28.1116 33.5308 28 33.5308C27.8884 33.5308 27.7781 33.5066 27.6767 33.46L22.8085 31.22C22.7065 31.1731 22.5955 31.149 22.4832 31.1493C22.3708 31.1497 22.26 31.1744 22.1582 31.2219L20.7359 31.8869C20.6896 31.9084 20.6503 31.9427 20.6229 31.9858C20.5954 32.0289 20.5809 32.079 20.5811 32.1301C20.5812 32.1812 20.596 32.2312 20.6236 32.2741C20.6513 32.3171 20.6907 32.3512 20.7372 32.3725L27.6767 35.5657C27.8816 35.6599 28.1184 35.6599 28.3233 35.5657L35.2628 32.3725C35.3093 32.3512 35.3487 32.3171 35.3764 32.2741C35.404 32.2312 35.4188 32.1812 35.4189 32.1301C35.4191 32.079 35.4046 32.0289 35.3771 31.9858C35.3497 31.9427 35.3104 31.9084 35.2641 31.8869Z" fill="#0876DD"/>
</g>
</g>
<defs>
<filter id="filter0_d_5197_299" x="-12.3635" y="-2.36365" width="80.7273" height="80.7273" filterUnits="userSpaceOnUse" color-interpolation-filters="sRGB">
<feFlood flood-opacity="0" result="BackgroundImageFix"/>
<feColorMatrix in="SourceAlpha" type="matrix" values="0 0 0 0 0 0 0 0 0 0 0 0 0 0 0 0 0 0 127 0" result="hardAlpha"/>
<feOffset dy="10"/>
<feGaussianBlur stdDeviation="10"/>
<feColorMatrix type="matrix" values="0 0 0 0 0.109804 0 0 0 0 0.172549 0 0 0 0 0.25098 0 0 0 0.08 0"/>
<feBlend mode="normal" in2="BackgroundImageFix" result="effect1_dropShadow_5197_299"/>
<feBlend mode="normal" in="SourceGraphic" in2="effect1_dropShadow_5197_299" result="shape"/>
</filter>
<clipPath id="clip0_5197_299">
<rect width="56" height="56" fill="white"/>
</clipPath>
<clipPath id="clip1_5197_299">
<rect width="15.2727" height="15.2727" fill="white" transform="translate(20.3635 20.3636)"/>
</clipPath>
</defs>
</svg>
