<svg width="40" height="40" viewBox="0 0 40 40" fill="none" xmlns="http://www.w3.org/2000/svg">
<g id="Frame" clip-path="url(#clip0_5197_338)">
<path id="Vector" d="M14.6013 0.0986328C12.402 0.0986328 10.6193 1.8853 10.6193 4.08863C10.6188 4.61208 10.7214 5.13051 10.9212 5.61431C11.121 6.09812 11.4142 6.53783 11.784 6.90833C12.1537 7.27884 12.5929 7.57289 13.0763 7.77369C13.5597 7.97449 14.0779 8.07811 14.6013 8.07863H18.584V4.08863C18.5849 3.03142 18.1658 2.01714 17.4189 1.26889C16.672 0.520642 15.6585 0.0996932 14.6013 0.0986328ZM14.6013 10.7386H3.982C1.78267 10.7386 0 12.5253 0 14.7293C0 16.9326 1.78267 18.7193 3.982 18.7193H14.602C16.8007 18.7193 18.584 16.9326 18.584 14.7293C18.584 12.5253 16.8007 10.7386 14.6013 10.7386Z" fill="#36C5F0"/>
<path id="Vector_2" d="M39.8228 14.7293C39.8228 12.5253 38.0394 10.7386 35.8401 10.7386C33.6408 10.7386 31.8581 12.5253 31.8581 14.7293V18.7193H35.8401C36.8973 18.7182 37.9108 18.2973 38.6577 17.549C39.4046 16.8008 39.8237 15.7865 39.8228 14.7293ZM29.2034 14.7293V4.08863C29.2043 3.03142 28.7852 2.01714 28.0384 1.26889C27.2915 0.520641 26.278 0.0996932 25.2208 0.0986328C23.0214 0.0986328 21.2388 1.8853 21.2388 4.08863V14.7286C21.2388 16.9333 23.0214 18.72 25.2208 18.72C26.278 18.7189 27.2915 18.298 28.0384 17.5497C28.7852 16.8015 29.2043 15.7872 29.2034 14.73" fill="#2EB67D"/>
<path id="Vector_3" d="M25.2208 40.0001C26.278 39.999 27.2915 39.578 28.0384 38.8298C28.7852 38.0815 29.2043 37.0673 29.2034 36.0101C29.2043 34.9528 28.7852 33.9386 28.0384 33.1903C27.2915 32.4421 26.278 32.0211 25.2208 32.0201H21.2388V36.0101C21.2388 38.2134 23.0214 40.0001 25.2208 40.0001ZM25.2208 29.3601H35.8408C38.0394 29.3601 39.8228 27.5734 39.8228 25.3694C39.8237 24.3122 39.4046 23.2979 38.6577 22.5497C37.9108 21.8014 36.8973 21.3805 35.8401 21.3794H25.2208C23.0214 21.3794 21.2388 23.1661 21.2388 25.3694C21.2382 25.8928 21.3408 26.4113 21.5407 26.8951C21.7405 27.3789 22.0337 27.8186 22.4034 28.1891C22.7732 28.5596 23.2123 28.8536 23.6957 29.0544C24.1791 29.2552 24.6973 29.3589 25.2208 29.3594" fill="#ECB22E"/>
<path id="Vector_4" d="M2.00922e-06 25.3694C-0.000523542 25.8928 0.102057 26.4113 0.301887 26.8951C0.501717 27.3789 0.794882 27.8186 1.16465 28.1891C1.53441 28.5596 1.97353 28.8536 2.45693 29.0544C2.94033 29.2552 3.45855 29.3589 3.982 29.3594C5.03922 29.3583 6.05272 28.9374 6.79959 28.1891C7.54647 27.4409 7.96555 26.4266 7.96467 25.3694V21.3794H3.982C1.78267 21.3794 2.00922e-06 23.1661 2.00922e-06 25.3694ZM10.6193 25.3694V36.0094C10.6193 38.2134 12.402 40.0001 14.6013 40.0001C15.6585 39.999 16.6721 39.578 17.4189 38.8298C18.1658 38.0815 18.5849 37.0673 18.584 36.0101V25.3694C18.5845 24.8459 18.4819 24.3274 18.2821 23.8436C18.0822 23.3597 17.789 22.92 17.4191 22.5495C17.0493 22.1789 16.6101 21.8849 16.1266 21.6842C15.6431 21.4834 15.1248 21.3798 14.6013 21.3794C12.402 21.3794 10.6193 23.1661 10.6193 25.3694Z" fill="#E01E5A"/>
</g>
<defs>
<clipPath id="clip0_5197_338">
<rect width="40" height="40" fill="white"/>
</clipPath>
</defs>
</svg>
